<svg xmlns="http://www.w3.org/2000/svg" viewBox="0 0 927.78 85.09"><defs><style>.cls-1{fill:#000078;}.cls-2{fill:#5e52ff;}.cls-3{fill:#1be1ea;}</style></defs><title>Asset 2</title><g id="Layer_2" data-name="Layer 2"><g id="Layer_7" data-name="Layer 7"><path class="cls-1" d="M69.62,80.11,1.21,37.32A2.48,2.48,0,0,1,.43,33.8L1.69,32a2.76,2.76,0,0,1,3.7-.72L73.8,74.05a2.48,2.48,0,0,1,.78,3.52l-1.26,1.82A2.76,2.76,0,0,1,69.62,80.11Z"/><path class="cls-1" d="M73.74,70.66,67,80.28a2.56,2.56,0,0,0,1.93,4l12.18.78a2.55,2.55,0,0,0,2.42-3.73L78.09,70.94A2.55,2.55,0,0,0,73.74,70.66Z"/><rect class="cls-2" x="0.23" y="44.9" width="915.15" height="9.41" rx="4.7" transform="translate(-0.17 1.6) rotate(-0.2)"/><path class="cls-2" d="M911.83,42.42l.25,12.21a2.62,2.62,0,0,0,4,2.19l10.46-6.33a2.62,2.62,0,0,0-.1-4.54l-10.71-5.89A2.62,2.62,0,0,0,911.83,42.42Z"/><rect class="cls-3" x="-3.06" y="42.94" width="72.8" height="10.17" rx="2.82" transform="translate(-14.69 81.36) rotate(-90)"/><path class="cls-3" d="M30.77,1.47l-6.6,11.81a2.88,2.88,0,0,0,2.51,4.29h13.2a2.89,2.89,0,0,0,2.52-4.29L35.79,1.47A2.88,2.88,0,0,0,30.77,1.47Z"/></g></g></svg>