<svg xmlns="http://www.w3.org/2000/svg" xmlns:xlink="http://www.w3.org/1999/xlink" viewBox="0 0 280.76 280.76"><defs><style>.cls-1{fill:#030075;}.cls-2{fill:#5b53ff;}.cls-3{fill:#ebeae5;}.cls-4{fill:#1be1ea;}</style><symbol id="Graph" data-name="Graph" viewBox="0 0 198.13 198.13"><rect class="cls-1" width="198.13" height="198.13" rx="47.51"/><path class="cls-2" d="M138.11,162.76,22.7,95.25a4.38,4.38,0,0,1-1.57-6L23,86a4.38,4.38,0,0,1,6-1.57L144.43,152a4.37,4.37,0,0,1,1.56,6l-1.9,3.26A4.37,4.37,0,0,1,138.11,162.76Z"/><path class="cls-2" d="M143.15,148.5l-8.3,14a3.48,3.48,0,0,0,3,5.27l16.25.21a3.49,3.49,0,0,0,3.09-5.19l-7.94-14.18A3.5,3.5,0,0,0,143.15,148.5Z"/><path class="cls-3" d="M143.1,71.7,32.62,163.55a4.51,4.51,0,0,1-6.37-.59L24,160.3a4.52,4.52,0,0,1,.58-6.37L135.11,62.07a4.53,4.53,0,0,1,6.37.59l2.21,2.66A4.53,4.53,0,0,1,143.1,71.7Z"/><path class="cls-3" d="M133.86,60.17l10.61,12.32a3.49,3.49,0,0,0,5.93-1.13L155.76,56a3.49,3.49,0,0,0-3.94-4.58l-16,3A3.49,3.49,0,0,0,133.86,60.17Z"/><path class="cls-4" d="M88.14,30.27V174.71a4.53,4.53,0,0,1-4.53,4.54H80.17a4.54,4.54,0,0,1-4.54-4.54V30.27a4.53,4.53,0,0,1,4.54-4.53h3.44A4.53,4.53,0,0,1,88.14,30.27Z"/><path class="cls-4" d="M78.8,20.62,70.67,34.7a3.49,3.49,0,0,0,3,5.23H90a3.49,3.49,0,0,0,3-5.23L84.84,20.62A3.49,3.49,0,0,0,78.8,20.62Z"/></symbol></defs><title>Asset 5</title><g id="Layer_2" data-name="Layer 2"><g id="Layer_8" data-name="Layer 8"><use width="198.13" height="198.13" transform="scale(1.42)" xlink:href="#Graph"/></g></g></svg>