<svg xmlns="http://www.w3.org/2000/svg" xmlns:xlink="http://www.w3.org/1999/xlink" viewBox="0 0 307.11 280.76"><defs><style>.cls-1{fill:none;}.cls-2{fill:#030075;}.cls-3{fill:#5b53ff;}.cls-4{fill:#ebeae5;}.cls-5{fill:#1be1ea;}.cls-6{isolation:isolate;}.cls-7{fill:#e7b109;}.cls-8{fill:#b68c07;}.cls-9{fill:#deaa09;}.cls-10{clip-path:url(#clip-path);}.cls-11{fill:#7324ca;}.cls-12{fill:#5650df;}.cls-13{fill:#22c2e4;}.cls-14{fill:#211915;}.cls-15{clip-path:url(#clip-path-2);}.cls-16{fill:#5b5b5f;}</style><clipPath id="clip-path"><polygon class="cls-1" points="186.09 123.52 185.86 205.04 125 169.9 125.23 88.39 186.09 123.52"/></clipPath><clipPath id="clip-path-2"><polygon class="cls-1" points="245.05 89.26 186.09 123.52 125.23 88.39 184.19 54.13 245.05 89.26"/></clipPath><symbol id="Graph" data-name="Graph" viewBox="0 0 198.13 198.13"><rect class="cls-2" width="198.13" height="198.13" rx="47.51"/><path class="cls-3" d="M138.11,162.76,22.7,95.25a4.38,4.38,0,0,1-1.57-6L23,86a4.38,4.38,0,0,1,6-1.57L144.43,152a4.37,4.37,0,0,1,1.56,6l-1.9,3.26A4.37,4.37,0,0,1,138.11,162.76Z"/><path class="cls-3" d="M143.15,148.5l-8.3,14a3.48,3.48,0,0,0,3,5.27l16.25.21a3.49,3.49,0,0,0,3.09-5.19l-7.94-14.18A3.5,3.5,0,0,0,143.15,148.5Z"/><path class="cls-4" d="M143.1,71.7,32.62,163.55a4.51,4.51,0,0,1-6.37-.59L24,160.3a4.52,4.52,0,0,1,.58-6.37L135.11,62.07a4.53,4.53,0,0,1,6.37.59l2.21,2.66A4.53,4.53,0,0,1,143.1,71.7Z"/><path class="cls-4" d="M133.86,60.17l10.61,12.32a3.49,3.49,0,0,0,5.93-1.13L155.76,56a3.49,3.49,0,0,0-3.94-4.58l-16,3A3.49,3.49,0,0,0,133.86,60.17Z"/><path class="cls-5" d="M88.14,30.27V174.71a4.53,4.53,0,0,1-4.53,4.54H80.17a4.54,4.54,0,0,1-4.54-4.54V30.27a4.53,4.53,0,0,1,4.54-4.53h3.44A4.53,4.53,0,0,1,88.14,30.27Z"/><path class="cls-5" d="M78.8,20.62,70.67,34.7a3.49,3.49,0,0,0,3,5.23H90a3.49,3.49,0,0,0,3-5.23L84.84,20.62A3.49,3.49,0,0,0,78.8,20.62Z"/></symbol></defs><title>Asset 1</title><g id="Layer_2" data-name="Layer 2"><g id="Layer_8" data-name="Layer 8"><use width="198.13" height="198.13" transform="scale(1.42)" xlink:href="#Graph"/><g class="cls-6"><polygon class="cls-7" points="244.81 170.78 185.86 205.04 125 169.9 183.96 135.64 244.81 170.78"/><polygon class="cls-8" points="125.23 88.39 184.19 54.13 183.96 135.64 125 169.9 125.23 88.39"/><polygon class="cls-9" points="184.19 54.13 245.05 89.26 244.81 170.78 183.96 135.64 184.19 54.13"/><polygon class="cls-9" points="186.09 123.52 185.86 205.04 125 169.9 125.23 88.39 186.09 123.52"/><g class="cls-6"><g class="cls-10"><path d="M196.76,167.52l-1-.56-1.12,2.53-1.13-3.83-1-.56,0,6,1.08.62v-2.62l.76,2.52.52.3.76-1.73v2.72l1.07.62v-6"/><path d="M198.43,169.79l-1.13-.65v4.65l1.12.65,0-4.65m-.56-2.66c-.21-.12-.37-.12-.5,0a.79.79,0,0,0-.18.59,1.87,1.87,0,0,0,.18.8,1.26,1.26,0,0,0,.49.57c.21.12.38.12.5,0a.87.87,0,0,0,.19-.62,1.67,1.67,0,0,0-.19-.79,1.26,1.26,0,0,0-.49-.55"/><path d="M200.83,171.09a.7.7,0,0,0-.61-.09.54.54,0,0,0-.22.16v-.46l-1.07-.62v4.65l1.12.65v-2.19a1.72,1.72,0,0,1,.06-.52c0-.11.09-.18.16-.2a.27.27,0,0,1,.21,0,.62.62,0,0,1,.24.33,1.92,1.92,0,0,1,.09.67v2.32l1.13.65v-2.65a4.92,4.92,0,0,0-.14-1.28,2.88,2.88,0,0,0-.4-.9,1.74,1.74,0,0,0-.57-.55"/><path d="M203.57,172.75l-1.13-.65,0,4.65,1.13.65,0-4.65M203,170.1c-.21-.12-.37-.12-.5,0a.79.79,0,0,0-.18.59,1.9,1.9,0,0,0,.18.8,1.26,1.26,0,0,0,.49.57c.21.12.37.12.5,0a.87.87,0,0,0,.19-.62,1.67,1.67,0,0,0-.19-.79,1.2,1.2,0,0,0-.49-.55"/><path d="M207.69,175.05A.64.64,0,0,0,207,175a.77.77,0,0,0-.25.23,2.38,2.38,0,0,0-.22-.51,1.74,1.74,0,0,0-.63-.68.66.66,0,0,0-.58-.08.55.55,0,0,0-.2.15v-.44l-1.07-.62,0,4.65,1.13.66v-2.27a1.75,1.75,0,0,1,.05-.47.28.28,0,0,1,.13-.2.2.2,0,0,1,.18,0,.58.58,0,0,1,.22.31,2,2,0,0,1,.08.67v2.32l1.13.65v-2.27a1.75,1.75,0,0,1,.05-.47c0-.1.07-.17.13-.19a.19.19,0,0,1,.18,0,.64.64,0,0,1,.22.31,2.3,2.3,0,0,1,.08.67v2.32l1.13.65v-2.65a4.79,4.79,0,0,0-.14-1.27,2.66,2.66,0,0,0-.39-.9,1.76,1.76,0,0,0-.55-.54"/><path d="M210.4,176.7l-1.13-.65,0,4.65,1.13.65,0-4.65m-.56-2.66c-.21-.12-.37-.12-.5,0a.79.79,0,0,0-.18.59,1.87,1.87,0,0,0,.18.8,1.26,1.26,0,0,0,.49.57c.21.12.38.12.5,0a.87.87,0,0,0,.19-.62,1.67,1.67,0,0,0-.19-.79,1.32,1.32,0,0,0-.49-.55"/><polyline points="213.35 178.4 210.84 176.95 210.83 178.35 211.93 178.99 210.79 180.47 210.78 181.58 213.39 183.09 213.4 181.68 212.21 181 213.35 179.51 213.35 178.4"/><path d="M215,182.92a.5.5,0,0,1-.2-.23.64.64,0,0,1-.07-.31.28.28,0,0,1,.08-.24c.06,0,.14,0,.26.05l.28.16v.33a.37.37,0,0,1-.14.25.22.22,0,0,1-.21,0m0-3.66a1.86,1.86,0,0,0-.65-.25.91.91,0,0,0-.58.06l.36,1.47a.56.56,0,0,1,.32-.07.79.79,0,0,1,.38.11,1,1,0,0,1,.39.41,1.19,1.19,0,0,1,.12.44l-.45-.27a1.56,1.56,0,0,0-.71-.24.44.44,0,0,0-.41.24,1.35,1.35,0,0,0-.14.68,3,3,0,0,0,.11.79,2.57,2.57,0,0,0,.34.73,1.82,1.82,0,0,0,.56.51c.24.14.43.17.57.07a.53.53,0,0,0,.21-.31v.61l1.05.6v-2.5a4.21,4.21,0,0,0-.39-1.92,2.72,2.72,0,0,0-1.09-1.16"/><path d="M218.2,180.16l-1.13-.66v1.05l-.38-.22v1.41l.37.21v1.45a3.62,3.62,0,0,0,.31,1.6,2.19,2.19,0,0,0,.88,1,1.35,1.35,0,0,0,.38.16.54.54,0,0,0,.31,0l-.26-1.49a.27.27,0,0,1-.26,0,.51.51,0,0,1-.17-.22,1,1,0,0,1-.06-.37V182.6l.56.33v-1.41l-.56-.32v-1"/><path d="M220.37,182.46l-1.13-.66v4.65l1.13.66v-4.65m-.56-2.66c-.2-.12-.37-.12-.49,0a.75.75,0,0,0-.19.59,1.87,1.87,0,0,0,.18.8,1.28,1.28,0,0,0,.5.57c.2.12.37.12.49,0a.82.82,0,0,0,.19-.62,1.79,1.79,0,0,0-.18-.79,1.28,1.28,0,0,0-.5-.55"/><path d="M222.31,186.82a.72.72,0,0,1-.23-.23,1.59,1.59,0,0,1-.16-.41,2.23,2.23,0,0,1-.06-.54,1.41,1.41,0,0,1,.07-.47.33.33,0,0,1,.16-.21.23.23,0,0,1,.22,0,.84.84,0,0,1,.23.23,1.67,1.67,0,0,1,.16.4,2.16,2.16,0,0,1,.05.54,1.49,1.49,0,0,1-.06.47.35.35,0,0,1-.16.22.25.25,0,0,1-.22,0m0-3.32a1.07,1.07,0,0,0-.83-.17.89.89,0,0,0-.56.52,2.56,2.56,0,0,0-.21,1.13,4.5,4.5,0,0,0,.2,1.37,4.43,4.43,0,0,0,.56,1.18,2.63,2.63,0,0,0,.82.78,1.07,1.07,0,0,0,.83.17.88.88,0,0,0,.56-.53,2.56,2.56,0,0,0,.21-1.13,4.83,4.83,0,0,0-.2-1.37,4,4,0,0,0-.56-1.17,2.42,2.42,0,0,0-.82-.78"/><path d="M226.16,185.72a.69.69,0,0,0-.61-.09.62.62,0,0,0-.22.15v-.46l-1.08-.62v4.65l1.13.65v-2.18a1.72,1.72,0,0,1,.06-.52c0-.11.09-.18.16-.2a.24.24,0,0,1,.21,0,.59.59,0,0,1,.25.32,2,2,0,0,1,.08.67v2.32l1.13.66v-2.66a4.81,4.81,0,0,0-.15-1.27,2.94,2.94,0,0,0-.4-.91,1.81,1.81,0,0,0-.57-.54"/><path d="M230.48,191.88a.54.54,0,0,1-.2-.22.7.7,0,0,1-.07-.31.31.31,0,0,1,.08-.25q.09,0,.27.06l.28.16v.32c0,.14-.08.22-.15.25a.2.2,0,0,1-.21,0m0-3.66a1.76,1.76,0,0,0-.66-.24,1,1,0,0,0-.58.05l.36,1.48a.51.51,0,0,1,.33-.08.89.89,0,0,1,.37.12,1,1,0,0,1,.4.4,1.24,1.24,0,0,1,.11.44l-.45-.26a1.45,1.45,0,0,0-.7-.25.45.45,0,0,0-.42.24,1.44,1.44,0,0,0-.13.69,2.69,2.69,0,0,0,.11.79,2.64,2.64,0,0,0,.34.72,1.64,1.64,0,0,0,.56.52c.23.13.42.16.56.07a.6.6,0,0,0,.21-.32v.61l1.05.61v-2.5a4.36,4.36,0,0,0-.38-1.93,2.78,2.78,0,0,0-1.09-1.16"/><path d="M234.37,190.45a.66.66,0,0,0-.61-.08.54.54,0,0,0-.22.15v-.46l-1.08-.62v4.65l1.13.65v-2.18a1.67,1.67,0,0,1,.06-.52.33.33,0,0,1,.15-.21.26.26,0,0,1,.22,0,.63.63,0,0,1,.24.32,2,2,0,0,1,.09.67v2.32l1.13.65v-2.65a5.24,5.24,0,0,0-.14-1.27,2.84,2.84,0,0,0-.41-.91,1.82,1.82,0,0,0-.56-.55"/><path d="M237.48,195.58a.81.81,0,0,1-.22-.23,1.34,1.34,0,0,1-.16-.4,2.35,2.35,0,0,1-.06-.54,1.16,1.16,0,0,1,.07-.47.3.3,0,0,1,.16-.21.25.25,0,0,1,.22,0,.76.76,0,0,1,.23.24,1.44,1.44,0,0,1,.15.39,2.23,2.23,0,0,1,.06.54,1.49,1.49,0,0,1-.06.47.33.33,0,0,1-.16.22.25.25,0,0,1-.23,0m1.57-4-1.13-.65v2a1.39,1.39,0,0,0-.11-.21,1.55,1.55,0,0,0-.59-.6.77.77,0,0,0-.65-.09.91.91,0,0,0-.49.55,3.2,3.2,0,0,0-.18,1.19,5.63,5.63,0,0,0,.17,1.39,4.18,4.18,0,0,0,.48,1.11,2.11,2.11,0,0,0,.66.67.63.63,0,0,0,.61.1.57.57,0,0,0,.14-.13v.38l1.08.62v-6.31"/><path d="M242.9,194a1.45,1.45,0,0,0-.78-.22.88.88,0,0,0-.62.29,1.67,1.67,0,0,0-.41.75,4,4,0,0,0-.15,1.17,6.55,6.55,0,0,0,.14,1.34,6,6,0,0,0,.41,1.22,4.68,4.68,0,0,0,.61,1,2.85,2.85,0,0,0,.78.67,1.28,1.28,0,0,0,.91.22,1,1,0,0,0,.66-.5l-.74-1.56a.79.79,0,0,1-.34.32.47.47,0,0,1-.42-.06,1.21,1.21,0,0,1-.34-.3,1.61,1.61,0,0,1-.26-.45,3.05,3.05,0,0,1-.16-.56,3.49,3.49,0,0,1-.06-.65,2.55,2.55,0,0,1,.06-.59,1,1,0,0,1,.17-.37.37.37,0,0,1,.26-.15.55.55,0,0,1,.33.09,1.24,1.24,0,0,1,.42.43,3.61,3.61,0,0,1,.35.71l.74-.7a5,5,0,0,0-.65-1.26,3,3,0,0,0-.91-.84"/><path d="M246.09,200.55a.7.7,0,0,1-.22-.23,1.34,1.34,0,0,1-.16-.4,2.29,2.29,0,0,1-.06-.54,1.41,1.41,0,0,1,.06-.47.37.37,0,0,1,.16-.21.24.24,0,0,1,.23,0,.63.63,0,0,1,.23.23,1.59,1.59,0,0,1,.15.39,2.23,2.23,0,0,1,.06.54,1.45,1.45,0,0,1-.06.47.33.33,0,0,1-.16.22.25.25,0,0,1-.23,0m0-3.32a1,1,0,0,0-.82-.17.89.89,0,0,0-.56.52,2.61,2.61,0,0,0-.21,1.14,4.44,4.44,0,0,0,.2,1.36,3.9,3.9,0,0,0,.56,1.18,2.55,2.55,0,0,0,.82.79,1.06,1.06,0,0,0,.83.16.87.87,0,0,0,.56-.52,2.64,2.64,0,0,0,.21-1.14,4.76,4.76,0,0,0-.2-1.36,4.16,4.16,0,0,0-.56-1.18,2.66,2.66,0,0,0-.83-.78"/><path d="M250,199.45a.69.69,0,0,0-.61-.09.65.65,0,0,0-.22.16v-.46l-1.07-.62,0,4.65,1.14.65v-2.19a1.72,1.72,0,0,1,.06-.52c0-.11.09-.18.16-.2a.27.27,0,0,1,.21,0,.62.62,0,0,1,.24.33,1.92,1.92,0,0,1,.09.67v2.32l1.13.65v-2.65a4.92,4.92,0,0,0-.14-1.28,2.88,2.88,0,0,0-.4-.9,1.74,1.74,0,0,0-.57-.55"/><path d="M252.82,200.14l-1.13-.65v1l-.37-.21v1.4l.38.22v1.44A3.66,3.66,0,0,0,252,205a2.19,2.19,0,0,0,.88,1,1.35,1.35,0,0,0,.38.16.46.46,0,0,0,.31,0l-.27-1.49a.21.21,0,0,1-.25,0,.41.41,0,0,1-.17-.21.87.87,0,0,1-.06-.37v-1.43l.56.32v-1.4l-.56-.32v-1.05"/><path d="M255.82,202.84a.73.73,0,0,0-.66-.11.56.56,0,0,0-.23.18v-.5l-1.07-.62,0,4.65,1.13.65V205c0-.37.06-.6.17-.69a.35.35,0,0,1,.41,0l.12.08a.91.91,0,0,1,.13.1v-1.7"/><path d="M257.55,207.16a.63.63,0,0,1-.23-.23,1.51,1.51,0,0,1-.16-.4,2.92,2.92,0,0,1-.05-.54,1.45,1.45,0,0,1,.06-.47.33.33,0,0,1,.16-.21.22.22,0,0,1,.22,0,.63.63,0,0,1,.23.23,1.38,1.38,0,0,1,.16.39,2.23,2.23,0,0,1,.06.54,1.19,1.19,0,0,1-.07.47.33.33,0,0,1-.16.22.23.23,0,0,1-.22,0m0-3.32a1.1,1.1,0,0,0-.82-.17.92.92,0,0,0-.57.53,2.56,2.56,0,0,0-.21,1.13,4.83,4.83,0,0,0,.2,1.37,4.43,4.43,0,0,0,.56,1.18,2.63,2.63,0,0,0,.82.78,1.11,1.11,0,0,0,.83.17,1,1,0,0,0,.57-.53,2.76,2.76,0,0,0,.2-1.13,4.45,4.45,0,0,0-.2-1.37,4.15,4.15,0,0,0-.56-1.18,2.63,2.63,0,0,0-.82-.78"/><polyline points="260.64 204.04 259.51 203.39 259.49 209.7 260.62 210.35 260.64 204.04"/><path d="M264.49,211.1a1.13,1.13,0,0,1-.3-.28,1.87,1.87,0,0,1-.25-.44,3.06,3.06,0,0,1-.17-.56,3.52,3.52,0,0,1-.06-.66,2.43,2.43,0,0,1,.06-.59,1.07,1.07,0,0,1,.17-.37.4.4,0,0,1,.25-.15.46.46,0,0,1,.31.07,1.33,1.33,0,0,1,.31.28,2.3,2.3,0,0,1,.25.44,2.38,2.38,0,0,1,.16.57,3.37,3.37,0,0,1,.06.66,2.4,2.4,0,0,1-.06.58.91.91,0,0,1-.17.37.35.35,0,0,1-.25.15.47.47,0,0,1-.31-.07m0-4.6a1.42,1.42,0,0,0-.79-.22.92.92,0,0,0-.63.28,1.8,1.8,0,0,0-.42.75,3.94,3.94,0,0,0-.15,1.16,6,6,0,0,0,.15,1.33,5.47,5.47,0,0,0,.41,1.22,4.47,4.47,0,0,0,.62,1,2.93,2.93,0,0,0,.79.68,1.44,1.44,0,0,0,.79.23,1,1,0,0,0,.63-.29,1.91,1.91,0,0,0,.41-.75,4,4,0,0,0,.15-1.16,5.89,5.89,0,0,0-.14-1.33,6.72,6.72,0,0,0-.41-1.22,4.54,4.54,0,0,0-.62-1,3.16,3.16,0,0,0-.79-.69"/><path d="M268.22,208.34c-.39-.22-.69-.22-.9,0a1.93,1.93,0,0,0-.32,1.26v0l-.38-.21v1.4l.37.21v3l1.13.65v-3l.56.32v-1.4l-.6-.35h0a.61.61,0,0,1,.08-.37.14.14,0,0,1,.19,0,.45.45,0,0,1,.14.11l.12.14.27-1.17a1.49,1.49,0,0,0-.31-.36,2.7,2.7,0,0,0-.36-.26"/><polyline points="271.72 210.8 270.54 210.12 270.52 216.07 271.7 216.75 271.72 210.8"/><path d="M274.15,213.42a.68.68,0,0,0-.61-.08.62.62,0,0,0-.22.15V213l-1.08-.62v4.65l1.13.65v-2.18a2.65,2.65,0,0,1,.06-.52c0-.12.09-.18.16-.2a.21.21,0,0,1,.21,0,.59.59,0,0,1,.25.32,1.77,1.77,0,0,1,.08.67v2.32l1.13.65v-2.65a4.76,4.76,0,0,0-.15-1.27,2.84,2.84,0,0,0-.4-.91,1.85,1.85,0,0,0-.57-.55"/><polyline points="278.76 216.16 277.69 215.55 277.09 217.7 276.55 214.89 275.39 214.22 276.47 219.5 277.64 220.18 278.76 216.16"/><path d="M279.82,218.63a.87.87,0,0,1,.05-.19.32.32,0,0,1,.15-.21.29.29,0,0,1,.25,0,.82.82,0,0,1,.24.25,1.38,1.38,0,0,1,.15.39,1.69,1.69,0,0,1,0,.24l-.89-.51m.44-1.68a1,1,0,0,0-.79-.15.91.91,0,0,0-.56.53,2.57,2.57,0,0,0-.2,1.13,4.23,4.23,0,0,0,.2,1.36,4,4,0,0,0,.57,1.19,2.81,2.81,0,0,0,.87.82,1.23,1.23,0,0,0,.71.21.65.65,0,0,0,.49-.27l-.59-1.35a.58.58,0,0,1-.26.11.58.58,0,0,1-.31-.1,1,1,0,0,1-.31-.29,1.14,1.14,0,0,1-.2-.43.7.7,0,0,1,0-.14l1.89,1.09a1.34,1.34,0,0,0,0-.21,1.77,1.77,0,0,0,0-.22,5.08,5.08,0,0,0-.2-1.45,4,4,0,0,0-.55-1.13,2.58,2.58,0,0,0-.75-.7"/><path d="M284,219.12a.69.69,0,0,0-.61-.09.65.65,0,0,0-.22.16v-.46l-1.08-.62v4.65l1.13.65v-2.18a1.63,1.63,0,0,1,.06-.52.3.3,0,0,1,.16-.21.24.24,0,0,1,.21,0,.57.57,0,0,1,.25.32,1.77,1.77,0,0,1,.08.67v2.32l1.13.65v-2.65a4.76,4.76,0,0,0-.15-1.27,2.84,2.84,0,0,0-.4-.91,1.85,1.85,0,0,0-.57-.55"/><path d="M286.89,219.81l-1.13-.65v1.05l-.38-.22v1.4l.37.22v1.44a3.67,3.67,0,0,0,.31,1.61,2.19,2.19,0,0,0,.88,1,1.35,1.35,0,0,0,.38.16.46.46,0,0,0,.31,0l-.26-1.48a.27.27,0,0,1-.26,0,.5.5,0,0,1-.17-.22,1,1,0,0,1-.06-.37v-1.43l.56.33v-1.41l-.56-.32v-1.05"/><path d="M289.29,225.49a.61.61,0,0,1-.22-.23,1.34,1.34,0,0,1-.16-.4,2.29,2.29,0,0,1-.06-.54,1.41,1.41,0,0,1,.06-.47.33.33,0,0,1,.16-.21.27.27,0,0,1,.23,0,.74.74,0,0,1,.22.24,1.17,1.17,0,0,1,.16.39,2.23,2.23,0,0,1,.06.54,1.45,1.45,0,0,1-.06.47.36.36,0,0,1-.16.22.24.24,0,0,1-.23,0m0-3.32a1,1,0,0,0-.82-.17.93.93,0,0,0-.57.52,2.93,2.93,0,0,0-.21,1.14,4.44,4.44,0,0,0,.21,1.36,4.14,4.14,0,0,0,.55,1.18,2.58,2.58,0,0,0,.83.79,1,1,0,0,0,.82.16.92.92,0,0,0,.57-.53,2.72,2.72,0,0,0,.2-1.13,4.87,4.87,0,0,0-.19-1.37,4.25,4.25,0,0,0-.57-1.17,2.52,2.52,0,0,0-.82-.78"/><path d="M293.21,224.42a.81.81,0,0,0-.67-.11.56.56,0,0,0-.22.19V224l-1.07-.62,0,4.65,1.13.65v-2.07c0-.37.05-.59.16-.68a.36.36,0,0,1,.42,0l.12.08.13.1V224.5h0v-.09"/><path d="M296.57,226.45l-1.07-.62-.58,2.16-.56-2.82-1.16-.66h0v0l1.14,5.35s0,0,0,.06-.13,0-.23,0a.84.84,0,0,1-.21-.18,1.81,1.81,0,0,1-.19-.29l-.38,1.09a2,2,0,0,0,.37.52,1.93,1.93,0,0,0,.46.38,1,1,0,0,0,.53.16.57.57,0,0,0,.44-.24,2.33,2.33,0,0,0,.35-.8l1.14-4.09"/><polyline class="cls-11" points="121.6 142.34 121.59 146.46 144.77 159.84 144.78 155.88 121.6 142.5 121.6 142.34"/><polyline class="cls-12" points="214.31 192.56 121.61 139.04 121.6 142.34 121.6 142.5 144.78 155.88 214.3 196.02 214.31 192.56"/><polyline class="cls-13" points="307.02 242.55 121.62 135.51 121.61 138.97 307.01 246.01 307.02 242.55"/><path class="cls-14" d="M164.51,144.31l-2.4-1.39-2.77,5.67-2.82-8.9-2.4-1.39,0,13.65,2.67,1.54v-6l1.87,5.87,1.3.74,1.9-3.9v6.23L164.5,158V144.31"/><polyline class="cls-14" points="168.88 146.83 165.95 145.14 165.91 158.78 168.84 160.47 168.88 146.83"/><path class="cls-14" d="M174.79,149.93a3.94,3.94,0,0,0-1.93-.6,2.29,2.29,0,0,0-1.55.58,3.83,3.83,0,0,0-1,1.68,8.33,8.33,0,0,0-.37,2.68,13.41,13.41,0,0,0,1.36,5.93,10.65,10.65,0,0,0,1.53,2.36,7.32,7.32,0,0,0,1.93,1.63,3.62,3.62,0,0,0,2.26.6,2.36,2.36,0,0,0,1.64-1.08l-1.84-3.66a1.74,1.74,0,0,1-.85.69,1.3,1.3,0,0,1-1.05-.18,3,3,0,0,1-.83-.72,4.52,4.52,0,0,1-.64-1.05,5.82,5.82,0,0,1-.41-1.32,7.34,7.34,0,0,1-.15-1.5,4.7,4.7,0,0,1,.16-1.33,2.2,2.2,0,0,1,.41-.84.93.93,0,0,1,.64-.31,1.64,1.64,0,0,1,.84.24,3.39,3.39,0,0,1,1,1,8.11,8.11,0,0,1,.85,1.67l1.86-1.53a11.2,11.2,0,0,0-1.63-3,7.78,7.78,0,0,0-2.26-2"/><polyline class="cls-14" points="182.37 154.62 179.44 152.93 179.4 166.57 182.33 168.26 182.37 154.62"/><polyline class="cls-11" points="307.11 211.76 283.94 198.38 283.93 202.33 307.1 215.71 307.11 211.76"/><polyline class="cls-12" points="307.1 215.71 283.93 202.33 214.4 162.19 214.39 165.65 307.09 219.17 307.1 215.71"/><polyline class="cls-13" points="307.09 219.25 121.69 112.2 121.68 115.66 307.08 222.71 307.09 219.25"/></g></g><polygon class="cls-8" points="245.05 89.26 244.81 170.78 185.86 205.04 186.09 123.52 245.05 89.26"/><polygon class="cls-7" points="245.05 89.26 186.09 123.52 125.23 88.39 184.19 54.13 245.05 89.26"/><g class="cls-6"><g class="cls-15"><polyline class="cls-16" points="222.93 105.68 155.12 66.42 145.27 72.14 213.08 111.39 222.93 105.68"/></g></g></g></g></g></svg>